<?xml version="1.0" encoding="utf-8"?>
<!-- Generator: Adobe Illustrator 17.0.0, SVG Export Plug-In . SVG Version: 6.00 Build 0)  -->
<!DOCTYPE svg PUBLIC "-//W3C//DTD SVG 1.1//EN" "http://www.w3.org/Graphics/SVG/1.1/DTD/svg11.dtd">
<svg version="1.1" id="Layer_1" xmlns="http://www.w3.org/2000/svg" xmlns:xlink="http://www.w3.org/1999/xlink" x="0px" y="0px"
	 width="884.136px" height="716.766px" viewBox="-1.842 -5.648 884.136 716.766"
	 enable-background="new -1.842 -5.648 884.136 716.766" xml:space="preserve">
<g id="Layer_2">
	
		<linearGradient id="SVGID_1_" gradientUnits="userSpaceOnUse" x1="0" y1="464.559" x2="882.294" y2="464.559" gradientTransform="matrix(1 0 0 -1 0 820.1179)">
		<stop  offset="0" style="stop-color:#00AB4E"/>
		<stop  offset="0.0268" style="stop-color:#46AF49"/>
		<stop  offset="0.061" style="stop-color:#84B541"/>
		<stop  offset="0.0961" style="stop-color:#ACBB37"/>
		<stop  offset="0.1315" style="stop-color:#CAC02D"/>
		<stop  offset="0.1673" style="stop-color:#E0C323"/>
		<stop  offset="0.2037" style="stop-color:#F0C519"/>
		<stop  offset="0.2411" style="stop-color:#F9C611"/>
		<stop  offset="0.2809" style="stop-color:#FDC70C"/>
		<stop  offset="0.6685" style="stop-color:#F3903F"/>
		<stop  offset="0.8876" style="stop-color:#503293"/>
	</linearGradient>
	<rect y="0" fill="url(#SVGID_1_)" width="882.294" height="711.118"/>
	
		<ellipse transform="matrix(-0.6704 -0.742 0.742 -0.6704 1048.3474 608.9451)" fill="#9D9E37" cx="659.422" cy="71.632" rx="45.457" ry="42.478"/>
	
		<ellipse transform="matrix(-0.6704 -0.742 0.742 -0.6704 1058.6389 607.2753)" fill="#191135" cx="664.197" cy="68.511" rx="45.457" ry="42.478"/>
	<polygon fill="#28251C" points="882.294,643.178 882.294,603.591 882.294,498.868 882.294,339.679 882.294,295.209 882.294,163 
		882.294,122.129 882.294,122.129 882.294,122.129 862.294,171.958 852.286,-5.648 840.521,-5.648 844.294,39.443 844.294,83.586 
		842.294,153 716.992,-5.648 751.491,59 794.933,126.705 831.698,210.529 846.403,261.999 756.698,236.999 716.992,148.764 
		706.698,117.882 722.874,191.411 716.992,225.235 672.874,210.529 591.992,176.705 547.874,173.764 674.345,225.235 
		698.853,245.864 737.58,257.588 784.639,278.176 821.403,284.058 689.051,320.088 491.992,282.588 636.109,328.499 
		700.815,329.647 750.815,320.088 797.874,326.705 818.462,320.088 824.345,598.764 816.992,639.941 841.992,645.823 	"/>
	<polygon fill="#28251C" points="0,711.118 0,621.165 267.029,641.053 330.961,645.823 481.07,652.54 558.274,648.608 
		672.377,641.053 882.294,643.178 882.294,711.118 	"/>
	<polygon fill="#28251C" points="159.431,645.823 79.725,645.823 96.195,545.823 103.548,460.529 103.548,414.941 106.489,326.705 
		100.084,310.157 78.175,286.582 53.88,266.647 30.605,248.292 2.295,237.259 -1.842,217.923 -1.842,217.923 46.195,226.705 
		88.842,236.999 55.019,167.882 16.783,98.764 56.489,141.411 68.254,167.882 94.725,220.823 121.195,253.176 144.725,263.47 
		181.489,151.705 115.313,59.058 91.783,17.882 137.372,67.882 187.372,128.176 175.445,-5.648 189.731,-5.648 196.195,32.588 
		196.195,91.411 216.783,114.941 310.901,-5.648 346.82,-5.648 232.96,126.705 196.195,210.529 181.489,261.999 271.195,236.999 
		310.901,148.764 376.486,59 334.432,136.916 310.901,225.235 355.019,210.529 435.901,176.705 480.019,173.764 365.034,220.56 
		329.04,245.864 290.313,257.588 243.254,278.176 206.489,284.058 346.82,306.485 535.901,282.588 391.783,328.499 327.078,329.647 
		277.078,320.088 230.019,326.705 209.431,320.088 203.548,598.764 210.901,639.941 185.901,645.823 	"/>
</g>
<g id="Layer_1_1_">
</g>
</svg>
